<?xml version="1.0" standalone="no"?>
<!DOCTYPE svg PUBLIC "-//W3C//DTD SVG 20010904//EN"
 "http://www.w3.org/TR/2001/REC-SVG-20010904/DTD/svg10.dtd">
<svg version="1.0" xmlns="http://www.w3.org/2000/svg"
 width="700.000000pt" height="700.000000pt" viewBox="0 0 700.000000 700.000000"
 preserveAspectRatio="xMidYMid meet">
<metadata>
Created by potrace 1.11, written by Peter Selinger 2001-2013
</metadata>
<g transform="translate(0.000000,700.000000) scale(0.100000,-0.100000)"
fill="#000000" stroke="none">
<path d="M0 3500 l0 -3500 3500 0 3500 0 0 3500 0 3500 -3500 0 -3500 0 0
-3500z m4169 1220 c126 -21 217 -92 246 -194 9 -31 15 -68 13 -83 -3 -26 -6
-28 -59 -31 l-56 -3 -7 49 c-13 98 -75 150 -190 159 -125 10 -219 -41 -246
-134 -7 -25 -10 -115 -8 -253 3 -186 6 -220 22 -253 39 -79 171 -117 288 -83
95 27 154 115 146 219 l-3 42 -112 3 -113 3 0 49 0 50 170 0 170 0 0 -174 c0
-95 3 -201 6 -235 l7 -61 -50 0 c-54 0 -63 9 -63 68 l0 24 -31 -27 c-50 -41
-103 -64 -174 -74 -132 -19 -258 23 -322 107 -55 72 -63 119 -63 362 0 256 7
293 75 368 80 89 207 125 354 102z m-2344 -35 c80 -41 117 -94 123 -175 l4
-60 -55 0 c-58 0 -67 7 -67 55 0 110 -265 158 -345 63 -19 -23 -25 -41 -25
-80 0 -45 4 -54 34 -82 20 -20 80 -51 152 -81 233 -95 292 -135 314 -213 22
-82 6 -171 -44 -236 -100 -131 -451 -133 -549 -4 -31 41 -50 102 -45 148 l3
35 56 3 57 3 6 -45 c8 -51 34 -89 79 -113 49 -26 220 -25 264 2 44 26 67 76
60 132 -8 77 -39 98 -317 212 -137 56 -189 121 -190 237 0 77 36 153 87 185
67 42 102 49 224 46 106 -2 120 -4 174 -32z m863 -32 l3 -53 -205 0 -206 0 0
-145 0 -145 188 -2 187 -3 0 -45 0 -45 -185 -5 -185 -5 -3 -152 -3 -153 206 0
206 0 -3 -52 -3 -53 -260 0 -260 0 -3 445 c-1 245 0 451 3 458 3 10 61 12 262
10 l258 -3 3 -52z m624 46 c149 -32 216 -120 206 -269 -8 -101 -54 -173 -138
-215 -19 -10 -36 -19 -38 -20 -1 -1 49 -89 113 -194 63 -106 115 -196 115
-202 0 -5 -29 -9 -65 -9 l-64 0 -117 195 -117 195 -88 0 -89 0 -2 -192 -3
-193 -57 -3 -58 -3 0 461 0 460 175 0 c95 0 198 -5 227 -11z m1883 -44 l0 -50
-202 -3 -203 -2 0 -145 0 -145 185 0 185 0 0 -50 0 -50 -185 0 -185 0 0 -155
0 -155 203 -2 202 -3 0 -50 0 -50 -262 -3 -263 -2 0 460 0 460 263 -2 262 -3
0 -50z m360 -182 l116 -238 116 238 116 237 64 0 c35 0 63 -4 63 -10 0 -5 -67
-141 -150 -302 l-150 -292 0 -158 0 -158 -60 0 -60 0 0 158 0 158 -150 292
c-82 161 -150 297 -150 302 0 6 29 10 65 10 l65 0 115 -237z m-105 -1410 c64
-28 107 -68 138 -127 27 -51 27 -51 30 -301 3 -234 2 -255 -18 -307 -23 -62
-72 -119 -128 -147 -88 -45 -250 -52 -354 -16 -65 23 -130 83 -159 147 -23 51
-24 61 -24 308 l0 255 28 57 c34 69 87 113 165 139 79 26 256 22 322 -8z
m-4760 -333 c5 -343 5 -345 29 -388 35 -59 102 -92 190 -92 105 1 161 34 198
115 16 35 19 82 23 375 l5 335 55 0 55 0 0 -340 c0 -377 -3 -402 -66 -479
-122 -147 -406 -155 -536 -15 -12 14 -32 47 -45 74 -22 49 -23 59 -26 394 -2
189 -1 350 2 358 4 10 20 13 58 11 l53 -3 5 -345z m910 124 l5 -221 167 186
c264 293 227 261 302 261 36 0 67 -4 70 -8 3 -4 -70 -88 -161 -185 -100 -108
-163 -183 -160 -192 3 -7 83 -128 176 -269 94 -141 171 -258 171 -261 0 -3
-31 -5 -70 -5 l-70 0 -150 224 -149 225 -63 -65 -63 -66 -5 -156 -5 -157 -57
-3 -58 -3 0 454 c0 249 3 457 7 461 4 4 30 6 58 4 l50 -3 5 -221z m828 23 l2
-197 223 2 222 3 5 195 5 195 55 0 55 0 3 -457 2 -458 -60 0 -60 0 0 210 0
210 -225 0 -225 0 0 -210 0 -210 -60 0 -60 0 0 453 c0 250 3 457 7 461 4 4 30
6 58 4 l50 -3 3 -198z m1148 195 c9 -6 324 -886 324 -905 0 -4 -28 -7 -62 -7
l-63 0 -36 103 -36 102 -198 0 -198 0 -34 -102 -35 -103 -59 0 c-38 0 -59 4
-59 12 0 18 301 881 312 896 11 13 125 17 144 4z m819 -384 l194 -393 3 390 3
390 55 0 55 0 3 -457 2 -458 -90 0 -90 0 -194 388 -195 387 0 -387 -1 -388
-60 0 -60 0 0 453 c0 250 3 457 7 460 3 4 44 7 90 7 l85 0 193 -392z m1471
382 c6 -6 67 -184 135 -395 68 -212 126 -385 129 -385 3 0 63 172 134 383 71
210 133 388 139 395 5 7 32 12 63 12 45 0 54 -3 53 -17 0 -10 -69 -216 -153
-458 l-152 -440 -81 -3 c-70 -2 -82 0 -88 15 -21 55 -295 879 -295 890 0 16
101 18 116 3z"/>
<path d="M3030 4445 l0 -167 128 4 c154 4 194 19 223 82 23 52 24 121 1 166
-28 57 -74 73 -224 78 l-128 5 0 -168z"/>
<path d="M5211 2980 c-60 -13 -114 -51 -137 -97 -16 -33 -19 -66 -22 -244 -4
-226 2 -269 45 -320 85 -101 307 -91 374 17 23 38 24 47 27 263 4 243 -3 284
-51 329 -49 46 -153 69 -236 52z"/>
<path d="M3425 2733 c-43 -126 -80 -234 -83 -240 -3 -10 33 -13 162 -13 l165
0 -80 238 c-45 130 -82 238 -84 240 -1 1 -37 -100 -80 -225z"/>
</g>
</svg>
