<?xml version="1.0" encoding="UTF-8"?>
<svg width="14px" height="96px" viewBox="0 0 14 96" version="1.1" xmlns="http://www.w3.org/2000/svg" xmlns:xlink="http://www.w3.org/1999/xlink">
    <!-- Generator: Sketch 53 (72520) - https://sketchapp.com -->
    <title>Group 3</title>
    <desc>Created with Sketch.</desc>
    <g id="Page-1" stroke="none" stroke-width="1" fill="none" fill-rule="evenodd">
        <g id="Group-3" transform="translate(-0.500000, -0.500000)">
            <path d="M-16.977,37.188 C-16.7903324,37.188 -16.6036676,37.1646669 -16.417,37.118 L-16.487,38 C-16.7483346,38.0933338 -17.0283318,38.14 -17.327,38.14 C-17.6910018,38.14 -17.977999,38.0606675 -18.188,37.902 C-18.3980011,37.7433325 -18.5309997,37.4773352 -18.587,37.104 C-18.8016677,37.4306683 -19.1166646,37.6849991 -19.532,37.867 C-19.9473354,38.0490009 -20.3836644,38.14 -20.841,38.14 C-21.5316701,38.14 -22.1009978,37.9790016 -22.549,37.657 C-22.9970022,37.3349984 -23.221,36.8706697 -23.221,36.264 C-23.221,35.7319973 -22.987669,35.2723353 -22.521,34.885 C-22.054331,34.4976647 -21.3776711,34.2293341 -20.491,34.08 L-18.629,33.772 L-18.629,33.38 C-18.629,32.913331 -18.7736652,32.5400014 -19.063,32.26 C-19.3523348,31.9799986 -19.7536641,31.84 -20.267,31.84 C-20.733669,31.84 -21.1373316,31.9519989 -21.478,32.176 C-21.8186684,32.4000011 -22.0823324,32.7313311 -22.269,33.17 L-23.095,32.568 C-22.9083324,32.0453307 -22.5606692,31.6300015 -22.052,31.322 C-21.5433308,31.0139985 -20.9483367,30.86 -20.267,30.86 C-19.4363292,30.86 -18.7690025,31.0606647 -18.265,31.462 C-17.7609975,31.8633353 -17.509,32.4559961 -17.509,33.24 L-17.509,36.684 C-17.509,36.8520008 -17.4670004,36.9779996 -17.383,37.062 C-17.2989996,37.1460004 -17.1636676,37.188 -16.977,37.188 Z M-20.785,37.16 C-20.1969971,37.16 -19.6906688,37.0200014 -19.266,36.74 C-18.8413312,36.4599986 -18.629,36.0960022 -18.629,35.648 L-18.629,34.682 L-20.197,34.976 C-20.8223365,35.0880006 -21.2889985,35.248999 -21.597,35.459 C-21.9050015,35.669001 -22.059,35.9373317 -22.059,36.264 C-22.059,36.5533348 -21.9470011,36.7749992 -21.723,36.929 C-21.4989989,37.0830008 -21.1863353,37.16 -20.785,37.16 Z M-11.349,30.86 C-10.3689951,30.86 -9.59200287,31.1843301 -9.018,31.833 C-8.44399713,32.4816699 -8.157,33.370661 -8.157,34.5 C-8.157,35.629339 -8.44399713,36.5183301 -9.018,37.167 C-9.59200287,37.8156699 -10.3689951,38.14 -11.349,38.14 C-11.890336,38.14 -12.3733312,38.0163346 -12.798,37.769 C-13.2226688,37.5216654 -13.5376656,37.1926687 -13.743,36.782 L-13.813,38 L-14.793,38 L-14.793,27.78 L-13.673,27.78 L-13.673,32.092 C-13.4489989,31.7186648 -13.134002,31.4200011 -12.728,31.196 C-12.321998,30.9719989 -11.8623359,30.86 -11.349,30.86 Z M-11.475,37.16 C-10.7936633,37.16 -10.257002,36.9196691 -9.865,36.439 C-9.47299804,35.9583309 -9.277,35.3120041 -9.277,34.5 C-9.277,33.6879959 -9.47299804,33.0416691 -9.865,32.561 C-10.257002,32.0803309 -10.7936633,31.84 -11.475,31.84 C-12.1470034,31.84 -12.6813314,32.073331 -13.078,32.54 C-13.4746687,33.006669 -13.673,33.6319961 -13.673,34.416 L-13.673,34.584 C-13.673,35.3680039 -13.4746687,35.993331 -13.078,36.46 C-12.6813314,36.926669 -12.1470034,37.16 -11.475,37.16 Z M-3.019,30.86 C-1.96432806,30.86 -1.13600301,31.1819968 -0.534,31.826 C0.06800301,32.4700032 0.369,33.3613276 0.369,34.5 C0.369,35.6386724 0.06800301,36.5299968 -0.534,37.174 C-1.13600301,37.8180032 -1.96432806,38.14 -3.019,38.14 C-4.07367194,38.14 -4.90199699,37.8180032 -5.504,37.174 C-6.10600301,36.5299968 -6.407,35.6386724 -6.407,34.5 C-6.407,33.3613276 -6.10600301,32.4700032 -5.504,31.826 C-4.90199699,31.1819968 -4.07367194,30.86 -3.019,30.86 Z M-3.019,31.826 C-3.72833688,31.826 -4.28366466,32.0639976 -4.685,32.54 C-5.08633534,33.0160024 -5.287,33.6693292 -5.287,34.5 C-5.287,35.3306708 -5.08633534,35.9839976 -4.685,36.46 C-4.28366466,36.9360024 -3.72833688,37.174 -3.019,37.174 C-2.30966312,37.174 -1.75433534,36.9360024 -1.353,36.46 C-0.95166466,35.9839976 -0.751,35.3306708 -0.751,34.5 C-0.751,33.6693292 -0.95166466,33.0160024 -1.353,32.54 C-1.75433534,32.0639976 -2.30966312,31.826 -3.019,31.826 Z M8.601,31 L8.601,38 L7.621,38 L7.551,36.936 C7.084331,37.7386707 6.24900602,38.14 5.045,38.14 C4.28899622,38.14 3.67066907,37.9300021 3.19,37.51 C2.70933093,37.0899979 2.469,36.4460043 2.469,35.578 L2.469,31 L3.589,31 L3.589,35.284 C3.589,35.9653367 3.7289986,36.4483319 4.009,36.733 C4.2890014,37.0176681 4.69966396,37.16 5.241,37.16 C5.88500322,37.16 6.41933121,36.964002 6.844,36.572 C7.26866879,36.179998 7.481,35.5920039 7.481,34.808 L7.481,31 L8.601,31 Z M15.489,37.51 C15.022331,37.9300021 14.420337,38.14 13.683,38.14 C13.1136638,38.14 12.6493351,37.9860015 12.29,37.678 C11.9306649,37.3699985 11.7463334,36.8986698 11.737,36.264 L11.737,31.966 L10.337,31.966 L10.337,31 L11.737,31 L11.737,29.32 L12.857,29.012 L12.857,31 L15.447,31 L15.447,31.966 L12.857,31.966 L12.857,36.068 C12.857,36.4040017 12.9526657,36.6583325 13.144,36.831 C13.3353343,37.0036675 13.5896651,37.09 13.907,37.09 C14.3550022,37.09 14.7516649,36.9173351 15.097,36.572 L15.489,37.51 Z M29.979,30.86 C30.445669,30.86 30.881998,30.9556657 31.288,31.147 C31.694002,31.3383343 32.0229987,31.6346647 32.275,32.036 C32.5270013,32.4373353 32.653,32.9319971 32.653,33.52 L32.653,38 L31.533,38 L31.533,33.632 C31.533,33.0253303 31.3813348,32.5750015 31.078,32.281 C30.7746651,31.9869985 30.3756691,31.84 29.881,31.84 C29.5076648,31.84 29.1646682,31.9309991 28.852,32.113 C28.5393318,32.2950009 28.2873343,32.5609982 28.096,32.911 C27.9046657,33.2610017 27.809,33.6786642 27.809,34.164 L27.809,38 L26.689,38 L26.689,33.632 C26.689,33.0253303 26.5373349,32.5750015 26.234,32.281 C25.9306651,31.9869985 25.5316691,31.84 25.037,31.84 C24.7009983,31.84 24.3743349,31.9263325 24.057,32.099 C23.7396651,32.2716675 23.4783344,32.5399982 23.273,32.904 C23.0676656,33.2680018 22.965,33.720664 22.965,34.262 L22.965,38 L21.845,38 L21.845,31 L22.825,31 L22.895,32.092 C23.1376679,31.6813313 23.4573313,31.3733344 23.854,31.168 C24.2506686,30.9626656 24.6776644,30.86 25.135,30.86 C25.6483359,30.86 26.1219978,30.9766655 26.556,31.21 C26.9900022,31.4433345 27.3189989,31.7839978 27.543,32.232 C27.7483344,31.7839978 28.084331,31.4433345 28.551,31.21 C29.017669,30.9766655 29.4936642,30.86 29.979,30.86 Z M41.193,34.136 C41.193,34.3973346 41.1743335,34.6586654 41.137,34.92 L35.859,34.92 C35.9243337,35.6293369 36.159998,36.179998 36.566,36.572 C36.972002,36.964002 37.4969968,37.16 38.141,37.16 C38.6543359,37.16 39.0813316,37.0713342 39.422,36.894 C39.7626684,36.7166658 39.9936661,36.4600017 40.115,36.124 L41.053,36.614 C40.7729986,37.1086691 40.399669,37.4866654 39.933,37.748 C39.466331,38.0093346 38.8690036,38.14 38.141,38.14 C37.0863281,38.14 36.258003,37.8180032 35.656,37.174 C35.053997,36.5299968 34.753,35.6386724 34.753,34.5 C34.753,33.3613276 35.0399971,32.4700032 35.614,31.826 C36.1880029,31.1819968 37.0023281,30.86 38.057,30.86 C38.7103366,30.86 39.2749976,31.0046652 39.751,31.294 C40.2270024,31.5833348 40.5863321,31.9753309 40.829,32.47 C41.0716679,32.9646691 41.193,33.5199969 41.193,34.136 Z M38.057,31.84 C37.4409969,31.84 36.9440019,32.0219982 36.566,32.386 C36.1879981,32.7500018 35.9570004,33.26333 35.873,33.926 L40.115,33.926 C40.040333,33.2726634 39.8256684,32.7616685 39.471,32.393 C39.1163316,32.0243315 38.6450029,31.84 38.057,31.84 Z" id="aboutme" fill="#000000" fill-rule="nonzero" transform="translate(8.986000, 32.960000) rotate(90.000000) translate(-8.986000, -32.960000) "></path>
            <g id="Group-2" transform="translate(0.000000, 70.500000)" stroke="#000000">
                <path d="M7,-3.55271368e-15 L7,20.5" id="Line" stroke-linecap="square"></path>
                <g id="Group" transform="translate(0.000000, 18.000000)">
                    <path d="M9.5,0.5 L9.5,8.5" id="Line-2" transform="translate(9.500000, 4.500000) rotate(-135.000000) translate(-9.500000, -4.500000) "></path>
                    <path d="M4.5,0.5 L4.5,8.5" id="Line-2" transform="translate(4.500000, 4.500000) rotate(-45.000000) translate(-4.500000, -4.500000) "></path>
                </g>
            </g>
        </g>
    </g>
</svg>