<?xml version="1.0" encoding="UTF-8"?>
<svg width="62px" height="62px" viewBox="0 0 62 62" version="1.1" xmlns="http://www.w3.org/2000/svg" xmlns:xlink="http://www.w3.org/1999/xlink">
    <!-- Generator: Sketch 53 (72520) - https://sketchapp.com -->
    <title>Group</title>
    <desc>Created with Sketch.</desc>
    <g id="Page-1" stroke="none" stroke-width="1" fill="none" fill-rule="evenodd">
        <g id="noun_Love_1280836" fill="#FFFFFF" fill-rule="nonzero">
            <g id="Group">
                <path d="M0,0 L0,46 L4,46 L4,52 L6,52 L6,46 L18,46 L18,52 L20,52 L20,46 L30,46 L30,48 L32,48 L32,46 L46.4,46 L50,50.629 L53.6,46 L62,46 L62,0 L0,0 Z M44.534,40.344 C44.19,39.901 44,39.348 44,38.787 L44,38.536 C44,37.138 45.138,36 46.536,36 C47.213,36 47.85,36.264 48.329,36.743 L50,38.414 L51.671,36.743 C52.15,36.264 52.787,36 53.464,36 C54.862,36 56,37.138 56,38.536 L56,38.787 C56,39.348 55.81,39.901 55.466,40.344 L50,47.371 L44.534,40.344 Z M55.156,44 L57.045,41.571 C57.661,40.779 58,39.79 58,38.787 L58,38.536 C58,36.035 55.965,34 53.464,34 C52.253,34 51.113,34.472 50.257,35.329 L50,35.586 L49.743,35.329 C48.886,34.472 47.747,34 46.536,34 C44.035,34 42,36.035 42,38.536 L42,38.787 C42,39.79 42.339,40.779 42.955,41.571 L44.844,44 L32,44 L32,38 L30,38 L30,44 L20,44 L20,38 L18,38 L18,44 L6,44 L6,38 L4,38 L4,44 L2,44 L2,10 L55,10 L55,8 L2,8 L2,2 L60,2 L60,8 L57,8 L57,10 L60,10 L60,44 L55.156,44 Z" id="Shape"></path>
                <rect id="Rectangle" x="4" y="4" width="2" height="2"></rect>
                <rect id="Rectangle" x="8" y="4" width="2" height="2"></rect>
                <rect id="Rectangle" x="12" y="4" width="2" height="2"></rect>
                <path d="M15.464,27 C14.253,27 13.113,27.472 12.257,28.329 L12,28.586 L11.743,28.329 C10.886,27.472 9.747,27 8.536,27 C6.035,27 4,29.035 4,31.536 L4,31.787 C4,32.79 4.339,33.779 4.955,34.571 L12,43.629 L19.045,34.571 C19.661,33.779 20,32.79 20,31.787 L20,31.536 C20,29.035 17.965,27 15.464,27 Z M18,31.787 C18,32.348 17.81,32.901 17.466,33.344 L12,40.371 L6.534,33.344 C6.19,32.901 6,32.348 6,31.787 L6,31.536 C6,30.138 7.138,29 8.536,29 C9.213,29 9.85,29.264 10.329,29.743 L12,31.414 L13.671,29.743 C14.15,29.264 14.787,29 15.464,29 C16.862,29 18,30.138 18,31.536 L18,31.787 Z" id="Shape"></path>
                <path d="M39,23.787 L39,23.536 C39,21.035 36.965,19 34.464,19 C33.253,19 32.113,19.472 31.257,20.329 L31,20.586 L30.743,20.329 C29.886,19.472 28.747,19 27.536,19 C25.035,19 23,21.035 23,23.536 L23,23.787 C23,24.79 23.339,25.779 23.955,26.571 L31,35.629 L38.045,26.571 C38.661,25.779 39,24.79 39,23.787 Z M37,23.787 C37,24.348 36.81,24.901 36.466,25.344 L31,32.371 L25.534,25.344 C25.19,24.901 25,24.348 25,23.787 L25,23.536 C25,22.138 26.138,21 27.536,21 C28.213,21 28.85,21.264 29.329,21.743 L31,23.414 L32.671,21.743 C33.15,21.264 33.787,21 34.464,21 C35.862,21 37,22.138 37,23.536 L37,23.787 Z" id="Shape"></path>
                <rect id="Rectangle" x="22" y="29" width="2" height="13"></rect>
                <rect id="Rectangle" x="22" y="48" width="2" height="2"></rect>
                <rect id="Rectangle" x="22" y="52" width="2" height="6"></rect>
                <rect id="Rectangle" x="38" y="29" width="2" height="13"></rect>
                <rect id="Rectangle" x="38" y="48" width="2" height="4"></rect>
                <rect id="Rectangle" x="38" y="54" width="2" height="4"></rect>
                <rect id="Rectangle" x="4" y="54" width="2" height="2"></rect>
                <rect id="Rectangle" x="56" y="48" width="2" height="6"></rect>
                <rect id="Rectangle" x="56" y="56" width="2" height="4"></rect>
                <rect id="Rectangle" x="42" y="48" width="2" height="6"></rect>
                <rect id="Rectangle" x="42" y="56" width="2" height="4"></rect>
                <rect id="Rectangle" x="11" y="48" width="2" height="10"></rect>
                <rect id="Rectangle" x="49" y="52" width="2" height="10"></rect>
                <rect id="Rectangle" x="11" y="60" width="2" height="2"></rect>
                <rect id="Rectangle" x="30" y="50" width="2" height="2"></rect>
                <rect id="Rectangle" x="18" y="54" width="2" height="2"></rect>
            </g>
        </g>
    </g>
</svg>