<?xml version="1.0" encoding="UTF-8"?>
<svg width="100px" height="88px" viewBox="0 0 100 88" version="1.1" xmlns="http://www.w3.org/2000/svg" xmlns:xlink="http://www.w3.org/1999/xlink">
    <!-- Generator: Sketch 53 (72520) - https://sketchapp.com -->
    <title>noun_contact_82191</title>
    <desc>Created with Sketch.</desc>
    <g id="Page-1" stroke="none" stroke-width="1" fill="none" fill-rule="evenodd">
        <g id="noun_contact_82191" fill="#000000" fill-rule="nonzero">
            <path d="M93.861,87.259 L78.035,87.259 C77.103,87.259 76.349,86.504 76.349,85.573 L76.349,79.63 C76.349,78.7 77.103,77.945 78.035,77.945 L81.471,77.945 C83.38,77.945 84.936,76.404 84.936,74.509 L84.936,74.08 C84.936,72.186 83.38,70.645 81.471,70.645 L66.195,70.645 C64.285,70.645 62.73,72.186 62.73,74.08 L62.73,74.509 C62.73,76.404 64.285,77.945 66.195,77.945 L69.629,77.945 C70.561,77.945 71.315,78.7 71.315,79.63 L71.315,85.573 C71.315,86.504 70.561,87.259 69.629,87.259 L30.372,87.259 C29.441,87.259 28.687,86.504 28.687,85.573 L28.687,79.63 C28.687,78.7 29.441,77.945 30.372,77.945 L33.807,77.945 C35.718,77.945 37.272,76.404 37.272,74.509 L37.272,74.08 C37.272,72.186 35.717,70.645 33.807,70.645 L18.533,70.645 C16.622,70.645 15.068,72.186 15.068,74.08 L15.068,74.509 C15.068,76.404 16.623,77.945 18.533,77.945 L21.967,77.945 C22.898,77.945 23.652,78.7 23.652,79.63 L23.652,85.573 C23.652,86.504 22.898,87.259 21.967,87.259 L6.139,87.259 C2.754,87.259 0,84.518 0,81.146 L0,6.853 C0,3.483 2.754,0.742 6.139,0.742 L93.861,0.742 C97.247,0.742 100,3.483 100,6.853 L100,81.146 C100,84.518 97.247,87.259 93.861,87.259 Z M79.721,83.889 L93.864,83.889 C95.389,83.889 96.631,82.659 96.631,81.147 L96.631,6.853 C96.631,5.342 95.392,4.113 93.864,4.113 L6.139,4.113 C4.613,4.113 3.37,5.342 3.37,6.853 L3.37,81.146 C3.37,82.658 4.612,83.888 6.139,83.888 L20.281,83.888 L20.281,81.316 L18.533,81.316 C14.764,81.316 11.697,78.263 11.697,74.51 L11.697,74.081 C11.697,70.329 14.764,67.276 18.533,67.276 L33.807,67.276 C37.576,67.276 40.643,70.329 40.643,74.081 L40.643,74.51 C40.643,78.263 37.576,81.316 33.807,81.316 L32.058,81.316 L32.058,83.888 L67.943,83.888 L67.943,81.316 L66.195,81.316 C62.426,81.316 59.359,78.263 59.359,74.51 L59.359,74.081 C59.359,70.329 62.426,67.276 66.195,67.276 L81.47,67.276 C85.238,67.276 88.306,70.329 88.306,74.081 L88.306,74.51 C88.306,78.263 85.238,81.316 81.47,81.316 L79.72,81.316 L79.72,83.889 L79.721,83.889 Z" id="Shape"></path>
            <rect id="Rectangle" x="61" y="40.067" width="25.469" height="3.37"></rect>
            <rect id="Rectangle" x="61" y="47.934" width="13.532" height="3.371"></rect>
            <rect id="Rectangle" x="61" y="12.164" width="25.469" height="3.371"></rect>
            <rect id="Rectangle" x="61" y="19.28" width="25.469" height="3.371"></rect>
            <rect id="Rectangle" x="61" y="27.146" width="25.469" height="3.371"></rect>
            <path d="M11.847,12.164 L11.847,51.305 L49.674,51.305 L49.674,12.164 L11.847,12.164 Z M25.103,29.316 C25.103,26.196 27.642,23.659 30.762,23.659 C33.881,23.659 36.418,26.196 36.418,29.316 C36.418,32.436 33.881,34.974 30.762,34.974 C27.642,34.974 25.103,32.436 25.103,29.316 Z M42.535,47.934 L18.986,47.934 C20.082,43.889 24.943,40.83 30.76,40.83 C36.577,40.83 41.439,43.888 42.535,47.934 Z M46.303,47.934 L45.968,47.934 C45.057,42.872 40.23,38.801 33.996,37.737 C37.378,36.432 39.789,33.155 39.789,29.318 C39.789,24.341 35.74,20.29 30.762,20.29 C25.783,20.29 21.733,24.34 21.733,29.318 C21.733,33.154 24.143,36.432 27.526,37.736 C21.291,38.799 16.464,42.87 15.553,47.934 L15.218,47.934 L15.218,15.535 L46.303,15.535 L46.303,47.934 L46.303,47.934 Z" id="Shape"></path>
        </g>
    </g>
</svg>